TITLE ""
FILE "TOEIC LR Kinnojyukugo_13.mp3" MP3
  TRACK 01 AUDIO
    TITLE "TOEIC LR Kinnojyukugo_13_001"
    INDEX 01 00:00:00
  TRACK 02 AUDIO
    TITLE "TOEIC LR Kinnojyukugo_13_002"
    INDEX 01 00:00:06
  TRACK 03 AUDIO
    TITLE "TOEIC LR Kinnojyukugo_13_003"
    INDEX 01 00:01:39
  TRACK 04 AUDIO
    TITLE "TOEIC LR Kinnojyukugo_13_004"
    INDEX 01 00:02:01
  TRACK 05 AUDIO
    TITLE "TOEIC LR Kinnojyukugo_13_005"
    INDEX 01 00:05:15
  TRACK 06 AUDIO
    TITLE "TOEIC LR Kinnojyukugo_13_006"
    INDEX 01 00:06:13
  TRACK 07 AUDIO
    TITLE "TOEIC LR Kinnojyukugo_13_007"
    INDEX 01 00:07:40
  TRACK 08 AUDIO
    TITLE "TOEIC LR Kinnojyukugo_13_008"
    INDEX 01 00:08:04
  TRACK 09 AUDIO
    TITLE "TOEIC LR Kinnojyukugo_13_009"
    INDEX 01 00:11:02
  TRACK 10 AUDIO
    TITLE "TOEIC LR Kinnojyukugo_13_010"
    INDEX 01 00:12:04
  TRACK 11 AUDIO
    TITLE "TOEIC LR Kinnojyukugo_13_011"
    INDEX 01 00:13:31
  TRACK 12 AUDIO
    TITLE "TOEIC LR Kinnojyukugo_13_012"
    INDEX 01 00:13:70
  TRACK 13 AUDIO
    TITLE "TOEIC LR Kinnojyukugo_13_013"
    INDEX 01 00:16:31
  TRACK 14 AUDIO
    TITLE "TOEIC LR Kinnojyukugo_13_014"
    INDEX 01 00:17:28
  TRACK 15 AUDIO
    TITLE "TOEIC LR Kinnojyukugo_13_015"
    INDEX 01 00:18:43
  TRACK 16 AUDIO
    TITLE "TOEIC LR Kinnojyukugo_13_016"
    INDEX 01 00:19:04
  TRACK 17 AUDIO
    TITLE "TOEIC LR Kinnojyukugo_13_017"
    INDEX 01 00:21:03
  TRACK 18 AUDIO
    TITLE "TOEIC LR Kinnojyukugo_13_018"
    INDEX 01 00:22:04
  TRACK 19 AUDIO
    TITLE "TOEIC LR Kinnojyukugo_13_019"
    INDEX 01 00:23:23
  TRACK 20 AUDIO
    TITLE "TOEIC LR Kinnojyukugo_13_020"
    INDEX 01 00:23:62
  TRACK 21 AUDIO
    TITLE "TOEIC LR Kinnojyukugo_13_021"
    INDEX 01 00:26:33
  TRACK 22 AUDIO
    TITLE "TOEIC LR Kinnojyukugo_13_022"
    INDEX 01 00:27:35
  TRACK 23 AUDIO
    TITLE "TOEIC LR Kinnojyukugo_13_023"
    INDEX 01 00:28:46
  TRACK 24 AUDIO
    TITLE "TOEIC LR Kinnojyukugo_13_024"
    INDEX 01 00:29:12
  TRACK 25 AUDIO
    TITLE "TOEIC LR Kinnojyukugo_13_025"
    INDEX 01 00:31:13
  TRACK 26 AUDIO
    TITLE "TOEIC LR Kinnojyukugo_13_026"
    INDEX 01 00:32:14
  TRACK 27 AUDIO
    TITLE "TOEIC LR Kinnojyukugo_13_027"
    INDEX 01 00:33:45
  TRACK 28 AUDIO
    TITLE "TOEIC LR Kinnojyukugo_13_028"
    INDEX 01 00:34:07
  TRACK 29 AUDIO
    TITLE "TOEIC LR Kinnojyukugo_13_029"
    INDEX 01 00:36:61
  TRACK 30 AUDIO
    TITLE "TOEIC LR Kinnojyukugo_13_030"
    INDEX 01 00:37:62
  TRACK 31 AUDIO
    TITLE "TOEIC LR Kinnojyukugo_13_031"
    INDEX 01 00:39:01
  TRACK 32 AUDIO
    TITLE "TOEIC LR Kinnojyukugo_13_032"
    INDEX 01 00:39:40
  TRACK 33 AUDIO
    TITLE "TOEIC LR Kinnojyukugo_13_033"
    INDEX 01 00:41:58
  TRACK 34 AUDIO
    TITLE "TOEIC LR Kinnojyukugo_13_034"
    INDEX 01 00:42:60
  TRACK 35 AUDIO
    TITLE "TOEIC LR Kinnojyukugo_13_035"
    INDEX 01 00:43:71
  TRACK 36 AUDIO
    TITLE "TOEIC LR Kinnojyukugo_13_036"
    INDEX 01 00:44:33
  TRACK 37 AUDIO
    TITLE "TOEIC LR Kinnojyukugo_13_037"
    INDEX 01 00:46:46
  TRACK 38 AUDIO
    TITLE "TOEIC LR Kinnojyukugo_13_038"
    INDEX 01 00:47:47
  TRACK 39 AUDIO
    TITLE "TOEIC LR Kinnojyukugo_13_039"
    INDEX 01 00:49:40
  TRACK 40 AUDIO
    TITLE "TOEIC LR Kinnojyukugo_13_040"
    INDEX 01 00:50:04
  TRACK 41 AUDIO
    TITLE "TOEIC LR Kinnojyukugo_13_041"
    INDEX 01 00:52:64
  TRACK 42 AUDIO
    TITLE "TOEIC LR Kinnojyukugo_13_042"
    INDEX 01 00:53:61
  TRACK 43 AUDIO
    TITLE "TOEIC LR Kinnojyukugo_13_043"
    INDEX 01 00:55:05
  TRACK 44 AUDIO
    TITLE "TOEIC LR Kinnojyukugo_13_044"
    INDEX 01 00:55:45
  TRACK 45 AUDIO
    TITLE "TOEIC LR Kinnojyukugo_13_045"
    INDEX 01 00:57:57
  TRACK 46 AUDIO
    TITLE "TOEIC LR Kinnojyukugo_13_046"
    INDEX 01 00:58:57
  TRACK 47 AUDIO
    TITLE "TOEIC LR Kinnojyukugo_13_047"
    INDEX 01 01:00:38
  TRACK 48 AUDIO
    TITLE "TOEIC LR Kinnojyukugo_13_048"
    INDEX 01 01:01:04
  TRACK 49 AUDIO
    TITLE "TOEIC LR Kinnojyukugo_13_049"
    INDEX 01 01:03:64
  TRACK 50 AUDIO
    TITLE "TOEIC LR Kinnojyukugo_13_050"
    INDEX 01 01:04:65
  TRACK 51 AUDIO
    TITLE "TOEIC LR Kinnojyukugo_13_051"
    INDEX 01 01:06:19
  TRACK 52 AUDIO
    TITLE "TOEIC LR Kinnojyukugo_13_052"
    INDEX 01 01:06:56
  TRACK 53 AUDIO
    TITLE "TOEIC LR Kinnojyukugo_13_053"
    INDEX 01 01:09:49
  TRACK 54 AUDIO
    TITLE "TOEIC LR Kinnojyukugo_13_054"
    INDEX 01 01:10:48
  TRACK 55 AUDIO
    TITLE "TOEIC LR Kinnojyukugo_13_055"
    INDEX 01 01:11:71
  TRACK 56 AUDIO
    TITLE "TOEIC LR Kinnojyukugo_13_056"
    INDEX 01 01:12:37
  TRACK 57 AUDIO
    TITLE "TOEIC LR Kinnojyukugo_13_057"
    INDEX 01 01:15:14
  TRACK 58 AUDIO
    TITLE "TOEIC LR Kinnojyukugo_13_058"
    INDEX 01 01:16:15
  TRACK 59 AUDIO
    TITLE "TOEIC LR Kinnojyukugo_13_059"
    INDEX 01 01:18:01
  TRACK 60 AUDIO
    TITLE "TOEIC LR Kinnojyukugo_13_060"
    INDEX 01 01:18:40
  TRACK 61 AUDIO
    TITLE "TOEIC LR Kinnojyukugo_13_061"
    INDEX 01 01:20:54
  TRACK 62 AUDIO
    TITLE "TOEIC LR Kinnojyukugo_13_062"
    INDEX 01 01:21:54
  TRACK 63 AUDIO
    TITLE "TOEIC LR Kinnojyukugo_13_063"
    INDEX 01 01:23:35
  TRACK 64 AUDIO
    TITLE "TOEIC LR Kinnojyukugo_13_064"
    INDEX 01 01:23:72
  TRACK 65 AUDIO
    TITLE "TOEIC LR Kinnojyukugo_13_065"
    INDEX 01 01:27:41
  TRACK 66 AUDIO
    TITLE "TOEIC LR Kinnojyukugo_13_066"
    INDEX 01 01:28:38
  TRACK 67 AUDIO
    TITLE "TOEIC LR Kinnojyukugo_13_067"
    INDEX 01 01:30:41
  TRACK 68 AUDIO
    TITLE "TOEIC LR Kinnojyukugo_13_068"
    INDEX 01 01:31:01
  TRACK 69 AUDIO
    TITLE "TOEIC LR Kinnojyukugo_13_069"
    INDEX 01 01:33:45
  TRACK 70 AUDIO
    TITLE "TOEIC LR Kinnojyukugo_13_070"
    INDEX 01 01:34:47
  TRACK 71 AUDIO
    TITLE "TOEIC LR Kinnojyukugo_13_071"
    INDEX 01 01:37:14
  TRACK 72 AUDIO
    TITLE "TOEIC LR Kinnojyukugo_13_072"
    INDEX 01 01:37:49
  TRACK 73 AUDIO
    TITLE "TOEIC LR Kinnojyukugo_13_073"
    INDEX 01 01:40:26
  TRACK 74 AUDIO
    TITLE "TOEIC LR Kinnojyukugo_13_074"
    INDEX 01 01:41:27
  TRACK 75 AUDIO
    TITLE "TOEIC LR Kinnojyukugo_13_075"
    INDEX 01 01:43:42
  TRACK 76 AUDIO
    TITLE "TOEIC LR Kinnojyukugo_13_076"
    INDEX 01 01:44:04
  TRACK 77 AUDIO
    TITLE "TOEIC LR Kinnojyukugo_13_077"
    INDEX 01 01:47:02
  TRACK 78 AUDIO
    TITLE "TOEIC LR Kinnojyukugo_13_078"
    INDEX 01 01:48:08
  TRACK 79 AUDIO
    TITLE "TOEIC LR Kinnojyukugo_13_079"
    INDEX 01 01:49:23
  TRACK 80 AUDIO
    TITLE "TOEIC LR Kinnojyukugo_13_080"
    INDEX 01 01:49:64
  TRACK 81 AUDIO
    TITLE "TOEIC LR Kinnojyukugo_13_081"
    INDEX 01 01:53:19
  TRACK 82 AUDIO
    TITLE "TOEIC LR Kinnojyukugo_13_082"
    INDEX 01 01:54:20
  TRACK 83 AUDIO
    TITLE "TOEIC LR Kinnojyukugo_13_083"
    INDEX 01 01:55:63
  TRACK 84 AUDIO
    TITLE "TOEIC LR Kinnojyukugo_13_084"
    INDEX 01 01:56:25
  TRACK 85 AUDIO
    TITLE "TOEIC LR Kinnojyukugo_13_085"
    INDEX 01 01:59:19
  TRACK 86 AUDIO
    TITLE "TOEIC LR Kinnojyukugo_13_086"
    INDEX 01 02:00:21
  TRACK 87 AUDIO
    TITLE "TOEIC LR Kinnojyukugo_13_087"
    INDEX 01 02:01:32
  TRACK 88 AUDIO
    TITLE "TOEIC LR Kinnojyukugo_13_088"
    INDEX 01 02:01:69
  TRACK 89 AUDIO
    TITLE "TOEIC LR Kinnojyukugo_13_089"
    INDEX 01 02:04:38
  TRACK 90 AUDIO
    TITLE "TOEIC LR Kinnojyukugo_13_090"
    INDEX 01 02:05:41
  TRACK 91 AUDIO
    TITLE "TOEIC LR Kinnojyukugo_13_091"
    INDEX 01 02:06:54
  TRACK 92 AUDIO
    TITLE "TOEIC LR Kinnojyukugo_13_092"
    INDEX 01 02:07:15
  TRACK 93 AUDIO
    TITLE "TOEIC LR Kinnojyukugo_13_093"
    INDEX 01 02:09:65
  TRACK 94 AUDIO
    TITLE "TOEIC LR Kinnojyukugo_13_094"
    INDEX 01 02:10:64
  TRACK 95 AUDIO
    TITLE "TOEIC LR Kinnojyukugo_13_095"
    INDEX 01 02:11:64
  TRACK 96 AUDIO
    TITLE "TOEIC LR Kinnojyukugo_13_096"
    INDEX 01 02:12:37
  TRACK 97 AUDIO
    TITLE "TOEIC LR Kinnojyukugo_13_097"
    INDEX 01 02:14:07
  TRACK 98 AUDIO
    TITLE "TOEIC LR Kinnojyukugo_13_098"
    INDEX 01 02:15:14
  TRACK 99 AUDIO
    TITLE "TOEIC LR Kinnojyukugo_13_099"
    INDEX 01 02:17:07
  TRACK 100 AUDIO
    TITLE "TOEIC LR Kinnojyukugo_13_100"
    INDEX 01 02:17:46
  TRACK 101 AUDIO
    TITLE "TOEIC LR Kinnojyukugo_13_101"
    INDEX 01 02:19:63
  TRACK 102 AUDIO
    TITLE "TOEIC LR Kinnojyukugo_13_102"
    INDEX 01 02:20:64
  TRACK 103 AUDIO
    TITLE "TOEIC LR Kinnojyukugo_13_103"
    INDEX 01 02:22:42
  TRACK 104 AUDIO
    TITLE "TOEIC LR Kinnojyukugo_13_104"
    INDEX 01 02:23:04
  TRACK 105 AUDIO
    TITLE "TOEIC LR Kinnojyukugo_13_105"
    INDEX 01 02:25:71
  TRACK 106 AUDIO
    TITLE "TOEIC LR Kinnojyukugo_13_106"
    INDEX 01 02:26:71
  TRACK 107 AUDIO
    TITLE "TOEIC LR Kinnojyukugo_13_107"
    INDEX 01 02:28:15
  TRACK 108 AUDIO
    TITLE "TOEIC LR Kinnojyukugo_13_108"
    INDEX 01 02:28:52
  TRACK 109 AUDIO
    TITLE "TOEIC LR Kinnojyukugo_13_109"
    INDEX 01 02:32:05
  TRACK 110 AUDIO
    TITLE "TOEIC LR Kinnojyukugo_13_110"
    INDEX 01 02:33:06
  TRACK 111 AUDIO
    TITLE "TOEIC LR Kinnojyukugo_13_111"
    INDEX 01 02:34:41
  TRACK 112 AUDIO
    TITLE "TOEIC LR Kinnojyukugo_13_112"
    INDEX 01 02:35:03
  TRACK 113 AUDIO
    TITLE "TOEIC LR Kinnojyukugo_13_113"
    INDEX 01 02:37:67
  TRACK 114 AUDIO
    TITLE "TOEIC LR Kinnojyukugo_13_114"
    INDEX 01 02:38:68
  TRACK 115 AUDIO
    TITLE "TOEIC LR Kinnojyukugo_13_115"
    INDEX 01 02:40:10
  TRACK 116 AUDIO
    TITLE "TOEIC LR Kinnojyukugo_13_116"
    INDEX 01 02:40:49
  TRACK 117 AUDIO
    TITLE "TOEIC LR Kinnojyukugo_13_117"
    INDEX 01 02:43:32
  TRACK 118 AUDIO
    TITLE "TOEIC LR Kinnojyukugo_13_118"
    INDEX 01 02:44:32
  TRACK 119 AUDIO
    TITLE "TOEIC LR Kinnojyukugo_13_119"
    INDEX 01 02:45:68
  TRACK 120 AUDIO
    TITLE "TOEIC LR Kinnojyukugo_13_120"
    INDEX 01 02:46:32
  TRACK 121 AUDIO
    TITLE "TOEIC LR Kinnojyukugo_13_121"
    INDEX 01 02:49:03
